PathFileType	4	(X/Y/Z)	c:/Users/goper/Files/vsCode/490R/osim_files/C11/C11_Slow_05.trc
DataRate	CameraRate	NumFrames	NumMarkers	Units                	OrigDataRate	OrigDataStartFrame	OrigNumFrames
120.00	120.00	4	36	mm	120.0	977	1562
                Frame#	Time	LPSIS			LASIS			LTH1			LTH2			LTH3			LTH4			LLFE			LMFE			LSH1			LSH2			LSH3			LSH4			LLMAL			LMMAL			LCAL			LMTP5			LTOE			LMTP1			RPSIS			RASIS			RTH1			RTH2			RTH3			RTH4			RLFE			RMFE			RSH1			RSH2			RSH3			RSH4			RLMAL			RMMAL			RCAL			RMTP1			RTOE			RMTP5		
		X1	Y1	Z1	X2	Y2	Z2	X3	Y3	Z3	X4	Y4	Z4	X5	Y5	Z5	X6	Y6	Z6	X7	Y7	Z7	X8	Y8	Z8	X9	Y9	Z9	X10	Y10	Z10	X11	Y11	Z11	X12	Y12	Z12	X13	Y13	Z13	X14	Y14	Z14	X15	Y15	Z15	X16	Y16	Z16	X17	Y17	Z17	X18	Y18	Z18	X19	Y19	Z19	X20	Y20	Z20	X21	Y21	Z21	X22	Y22	Z22	X23	Y23	Z23	X24	Y24	Z24	X25	Y25	Z25	X26	Y26	Z26	X27	Y27	Z27	X28	Y28	Z28	X29	Y29	Z29	X30	Y30	Z30	X31	Y31	Z31	X32	Y32	Z32	X33	Y33	Z33	X34	Y34	Z34	X35	Y35	Z35	X36	Y36	Z36

977	8.13333	-2229.41528	970.94037	318.68829	-2413.81274	977.75964	359.94925	-2447.82324	596.66107	405.69266	-2471.29468	554.86890	400.03302	-2503.93799	620.05365	409.28671	-2517.69922	575.34161	401.24686	0.00000	0.00000	0.00000	0.00000	0.00000	0.00000	-2493.82910	388.95090	403.39835	-2505.56323	346.84561	404.42648	-2556.75464	401.55997	408.55099	-2558.55615	356.43338	404.67279	-2582.09937	98.21441	341.44522	-2609.67188	119.59825	249.19382	-2526.13892	62.70671	284.22464	-2698.12671	50.69983	366.05573	-2767.65649	82.16771	301.80032	-2728.14600	62.96310	256.16211	-2221.63892	983.53638	232.85078	-2372.98315	959.01892	129.67488	-2230.38477	611.28070	121.49507	-2227.47046	568.38440	129.05505	-2293.91821	600.22479	124.59655	-2281.21265	559.30536	130.28438	-2226.93530	480.58548	149.68788	-2215.04370	475.77072	261.14572	-2109.79956	421.10934	146.11171	-2088.43457	381.14383	151.37758	-2162.50952	384.34653	148.97136	-2132.57764	348.55563	151.92287	-1956.88818	145.47746	217.04453	-1995.34607	149.96930	308.22977	-1892.49719	136.38773	278.54477	-2088.93848	51.96193	284.00555	-2090.47998	57.30828	232.83752	-2036.14563	45.55149	178.29889
978	8.14167	-2239.68140	971.59363	318.36115	-2424.64404	978.27704	359.99979	-2458.81567	597.23993	405.75665	-2482.05176	555.73584	400.23795	-2514.60181	620.84961	409.10974	-2528.07251	576.34460	401.02194	0.00000	0.00000	0.00000	0.00000	0.00000	0.00000	-2503.06104	389.90720	404.35950	-2514.49487	347.59708	404.68359	-2565.36182	401.37860	407.59891	-2567.14697	356.49173	404.42795	-2584.01782	97.73344	341.69214	-2612.34644	118.87894	249.97173	-2527.38672	63.42265	284.33304	-2698.95068	47.52224	367.16989	-2769.69653	77.10580	303.18173	-2729.73560	59.55355	257.15448	-2232.75464	983.65717	232.35619	-2384.23193	958.71918	129.57539	-2243.96631	609.98462	121.13055	-2242.53003	566.85132	128.11583	-2308.67554	599.58929	124.05948	-2295.74707	558.28198	129.49513	-2241.00488	479.71210	147.99048	-2230.09375	474.20963	259.75201	-2123.80908	422.79724	144.83202	-2101.41211	383.36633	149.98372	-2175.62671	384.67236	147.56674	-2145.57153	349.96036	150.50238	-1963.07458	150.83830	215.01707	-2001.62537	154.87843	306.03708	-1898.51526	145.46100	276.57880	-2090.42285	52.38058	283.91959	-2092.36646	57.29224	232.28131	-2037.50842	46.70418	177.78226
979	8.15000	-2250.54126	972.10431	317.87183	-2435.45679	978.85986	360.11044	-2469.04858	597.82751	405.84738	-2492.15332	556.28894	400.12201	-2525.03589	621.36719	409.47104	-2538.13452	576.77368	401.30728	0.00000	0.00000	0.00000	0.00000	0.00000	0.00000	-2511.95215	390.98920	405.57431	-2522.72363	348.52853	405.80838	-2573.76758	401.65677	408.29712	-2575.32593	356.26688	404.52618	-2585.52539	97.41814	341.84235	-2614.07031	118.33648	250.46452	-2528.14526	64.02001	284.42856	-2699.94678	46.14813	368.04181	-2770.96875	73.32815	303.24207	-2730.73462	57.10505	257.42624	-2243.89893	983.60883	231.81821	-2395.31543	958.77472	129.78958	-2259.05200	608.34381	120.28269	-2257.33325	565.29376	127.43324	-2323.42969	598.70905	123.32888	-2311.02612	557.31232	128.52930	-2257.64624	478.39996	146.62799	-2246.09326	472.47015	257.95380	-2138.81152	424.28333	143.34698	-2113.57251	386.21573	148.28470	-2188.34399	384.29050	145.98276	-2157.49609	350.82693	148.62343	-1969.99121	156.43997	212.79749	-2009.00293	159.83437	303.52264	-1905.42236	155.23793	274.49765	-2092.06860	52.96886	283.67984	-2094.08423	57.29182	231.85078	-2038.83215	48.01910	177.34209
980	8.15833	-2260.45874	972.99121	316.98703	-2446.00488	979.68390	360.22305	-2478.59448	598.54352	406.14047	-2501.68604	556.92676	400.31705	-2534.49902	621.76910	409.97357	-2547.94019	577.40546	401.66083	0.00000	0.00000	0.00000	0.00000	0.00000	0.00000	-2523.08740	394.46384	411.74860	-2530.76880	349.53500	406.98532	-2582.96973	401.30643	407.78632	-2583.08228	356.26208	405.03635	-2586.39551	97.49591	341.44785	-2614.85840	117.98015	250.04547	-2528.88867	64.10471	284.67194	-2700.48633	46.13660	367.80902	-2771.80273	71.39318	302.15036	-2731.14551	55.17393	256.40067	-2254.86426	983.59521	231.26134	-2406.08057	958.29620	129.62233	-2274.16919	606.64850	119.67387	-2273.29834	563.59937	126.39899	-2338.65137	598.01788	122.32475	-2327.52441	556.48071	127.25825	-2274.31616	476.95612	144.78462	-2262.97485	470.44312	256.05267	-2153.73096	426.47324	141.27713	-2128.33594	388.61282	146.50577	-2202.93433	384.59091	144.01820	-2172.10718	352.39740	146.57713	-1978.02673	162.32304	210.35817	-2017.34497	165.00276	300.83856	-1913.83398	165.53168	272.29773	-2093.77612	53.67867	283.39703	-2095.97632	57.36761	231.35406	-2040.28369	49.71198	176.80269
